<?xml version="1.0" encoding="UTF-8" standalone="no"?>
<!-- Generated by graphviz version 2.28.0 (20110606.1731)
 -->

<!-- Title: _anonymous_0 Pages: 1 -->

<svg
   xmlns:dc="http://purl.org/dc/elements/1.1/"
   xmlns:cc="http://creativecommons.org/ns#"
   xmlns:rdf="http://www.w3.org/1999/02/22-rdf-syntax-ns#"
   xmlns:svg="http://www.w3.org/2000/svg"
   xmlns="http://www.w3.org/2000/svg"
   xmlns:sodipodi="http://sodipodi.sourceforge.net/DTD/sodipodi-0.dtd"
   xmlns:inkscape="http://www.inkscape.org/namespaces/inkscape"
   width="116pt"
   height="116pt"
   viewBox="-50.00 -20.00 200.00 200.00"
   id="svg3332"
   version="1.1"
   inkscape:version="0.48.1 r9760"
   sodipodi:docname="cycles.dot.svg">
  <metadata
     id="metadata3371">
    <rdf:RDF>
      <cc:Work
         rdf:about="">
        <dc:format>image/svg+xml</dc:format>
        <dc:type
           rdf:resource="http://purl.org/dc/dcmitype/StillImage" />
      </cc:Work>
    </rdf:RDF>
  </metadata>
  <defs
     id="defs3369">
  </defs>
  <sodipodi:namedview
     pagecolor="#ffffff"
     bordercolor="#666666"
     borderopacity="1"
     objecttolerance="10"
     gridtolerance="10"
     guidetolerance="10"
     inkscape:pageopacity="0"
     inkscape:pageshadow="2"
     inkscape:window-width="999"
     inkscape:window-height="654"
     id="namedview3367"
     showgrid="true"
     inkscape:zoom="2.2068966"
     inkscape:cx="38.75"
     inkscape:cy="60.796631"
     inkscape:window-x="133"
     inkscape:window-y="84"
     inkscape:window-maximized="0"
     inkscape:current-layer="svg3332"
     showguides="false">
    <inkscape:grid
       type="xygrid"
       id="grid3425" />
  </sodipodi:namedview>
  <g
     id="graph1"
     class="graph"
     transform="scale(1 1) rotate(0) translate(4 112)">
    <title
       id="title3335">_anonymous_0</title>
    <!-- A -->
    <g
       id="node1"
       class="node">
      <title
         id="title3340">A</title>
      <ellipse
         cx="27"
         cy="-90"
         rx="27"
         ry="18"
         id="ellipse3342"
         d="m 54,-90 c 0,9.941125 -12.088312,18 -27,18 -14.911688,0 -27,-8.058875 -27,-18 0,-9.941125 12.088312,-18 27,-18 14.911688,0 27,8.058875 27,18 z"
         stroke="black"
         fill="none" />
      <text
         x="27"
         y="-86.3"
         font-size="14.00"
         id="text3344"
         text-anchor="middle"
         font-family="Times,serif">A</text>
    </g>
    <!-- B -->
    <g
       id="node3"
       class="node">
      <title
         id="title3347">B</title>
      <ellipse
         cx="27"
         cy="-18"
         rx="27"
         ry="18"
         id="ellipse3349"
         d="M 54,-18 C 54,-8.0588745 41.911688,0 27,0 12.088312,0 0,-8.0588745 0,-18 c 0,-9.941125 12.088312,-18 27,-18 14.911688,0 27,8.058875 27,18 z"
         stroke="black"
         fill="none" />
      <text
         x="27"
         y="-14.3"
         font-size="14.00"
         id="text3351"
         text-anchor="middle"
         font-family="Times,serif">B</text>
    </g>
    <!-- A&#45;&gt;B -->
    <g
       id="edge2"
       class="edge">
      <title
         id="title3354">A-&gt;B</title>
      <path
         d="M21.1601,-72.411C20.2975,-64.507 20.0481,-54.8518 20.4119,-45.9352"
         id="path3356"
         stroke="black"
         fill="none" />
      <polygon
         points="23.9033,-46.1791 21.1206,-35.9562 16.9209,-45.6831 23.9033,-46.1791"
         id="polygon3358"
         stroke="black"
         fill="black" />
    </g>
    <!-- B&#45;&gt;A -->
    <g
       id="edge4"
       class="edge">
      <title
         id="title3361">B-&gt;A</title>
      <path
         d="M32.8794,-35.9562C33.7139,-43.8272 33.9485,-53.3739 33.5831,-62.1869"
         id="path3363"
         stroke="black"
         fill="none" />
      <polygon
         points="30.0742,-62.1835 32.8399,-72.411 37.0558,-62.6911 30.0742,-62.1835"
         id="polygon3365"
         stroke="black"
         fill="black" />
    </g>
  </g>
  <circle
     style="fill:none;stroke:#b30000;stroke-width:28"
     sodipodi:ry="124"
     sodipodi:rx="124"
     sodipodi:cy="138"
     sodipodi:cx="138"
     cx="138"
     cy="138"
     r="124"
     id="circle3375"
     transform="matrix(0.53469202,0,0,0.53469202,-42.7875,-15.7875)"
     clip-path="url(#clipPath3607)" />
  <line
     style="stroke:#b30000;stroke-width:11.76322556"
     x1="-18.72636"
     y1="8.2736425"
     x2="80.726357"
     y2="107.72636"
     id="line3377" />
</svg>
