<?xml version="1.0" encoding="UTF-8" standalone="no"?>
<!DOCTYPE svg PUBLIC "-//W3C//DTD SVG 1.1//EN"
 "http://www.w3.org/Graphics/SVG/1.1/DTD/svg11.dtd">
<!-- Generated by graphviz version 2.28.0 (20110606.1731)
 -->
<!-- Title: _anonymous_0 Pages: 1 -->
<svg width="242pt" height="67pt"
 viewBox="0.00 0.00 242.00 67.00" xmlns="http://www.w3.org/2000/svg" xmlns:xlink="http://www.w3.org/1999/xlink">
<g id="graph1" class="graph" transform="scale(1 1) rotate(0) translate(4 63)">
<title>_anonymous_0</title>
<!-- R -->
<g id="node1" class="node"><title>R</title>
<ellipse fill="none" stroke="red" cx="27" cy="-18" rx="27" ry="18"/>
<text text-anchor="middle" x="27" y="-14.3" font-family="Times,serif" font-size="14.00">R</text>
</g>
<!-- Y -->
<g id="node2" class="node"><title>Y</title>
<ellipse fill="none" stroke="yellow" cx="117" cy="-41" rx="27" ry="18"/>
<text text-anchor="middle" x="117" y="-37.3" font-family="Times,serif" font-size="14.00">Y</text>
</g>
<!-- R&#45;&gt;Y -->
<g id="edge2" class="edge"><title>R&#45;&gt;Y</title>
<path fill="none" stroke="black" d="M52.5129,-24.4068C61.5717,-26.7744 72.0115,-29.503 81.775,-32.0548"/>
<polygon fill="black" stroke="black" points="81.0585,-35.4851 91.6186,-34.6276 82.8286,-28.7126 81.0585,-35.4851"/>
</g>
<!-- G -->
<g id="node3" class="node"><title>G</title>
<ellipse fill="none" stroke="green" cx="207" cy="-18" rx="27" ry="18"/>
<text text-anchor="middle" x="207" y="-14.3" font-family="Times,serif" font-size="14.00">G</text>
</g>
<!-- Y&#45;&gt;G -->
<g id="edge4" class="edge"><title>Y&#45;&gt;G</title>
<path fill="none" stroke="black" d="M142.513,-34.5932C151.572,-32.2256 162.012,-29.497 171.775,-26.9452"/>
<polygon fill="black" stroke="black" points="172.829,-30.2874 181.619,-24.3724 171.058,-23.5149 172.829,-30.2874"/>
</g>
<!-- G&#45;&gt;R -->
<g id="edge6" class="edge"><title>G&#45;&gt;R</title>
<path fill="none" stroke="black" d="M180.075,-15.9538C168.974,-15.1744 155.859,-14.3821 144,-14 120.012,-13.227 113.988,-13.227 90,-14 81.5692,-14.2717 72.5035,-14.7506 63.9776,-15.2849"/>
<polygon fill="black" stroke="black" points="63.6701,-11.7975 53.9246,-15.9538 64.1349,-18.7821 63.6701,-11.7975"/>
</g>
</g>
</svg>
