<?xml version="1.0" encoding="UTF-8" standalone="no"?>
<!DOCTYPE svg PUBLIC "-//W3C//DTD SVG 1.1//EN"
 "http://www.w3.org/Graphics/SVG/1.1/DTD/svg11.dtd">
<!-- Generated by graphviz version 2.28.0 (20110606.1731)
 -->
<!-- Title: _anonymous_0 Pages: 1 -->
<svg width="564pt" height="152pt"
 viewBox="0.00 0.00 564.00 152.00" xmlns="http://www.w3.org/2000/svg" xmlns:xlink="http://www.w3.org/1999/xlink">
<g id="graph1" class="graph" transform="scale(1 1) rotate(0) translate(4 148)">
<title>_anonymous_0</title>
<!-- spam -->
<g id="node1" class="node"><title>spam</title>
<ellipse fill="none" stroke="black" cx="80" cy="-126" rx="30.5947" ry="18"/>
<text text-anchor="middle" x="80" y="-122.3" font-family="Times,serif" font-size="14.00">spam</text>
</g>
<!-- Queue -->
<g id="node3" class="node"><title>Queue</title>
<ellipse fill="none" stroke="black" cx="293" cy="-72" rx="35.194" ry="18"/>
<text text-anchor="middle" x="293" y="-68.3" font-family="Times,serif" font-size="14.00">Queue</text>
</g>
<!-- spam&#45;&gt;Queue -->
<g id="edge2" class="edge"><title>spam&#45;&gt;Queue</title>
<path fill="none" stroke="black" d="M109.435,-120.93C141.471,-114.944 194.953,-104.124 240,-91 244.948,-89.5583 250.105,-87.8869 255.167,-86.1453"/>
<polygon fill="black" stroke="black" points="256.454,-89.4024 264.701,-82.7515 254.106,-82.8077 256.454,-89.4024"/>
<text text-anchor="middle" x="209" y="-109.8" font-family="Times,serif" font-size="14.00">Fry Well</text>
</g>
<!-- Philip J. Fryer -->
<g id="node9" class="node"><title>Philip J. Fryer</title>
<ellipse fill="none" stroke="black" cx="491" cy="-99" rx="64.9885" ry="18"/>
<text text-anchor="middle" x="491" y="-95.3" font-family="Times,serif" font-size="14.00">Philip J. Fryer</text>
</g>
<!-- Queue&#45;&gt;Philip J. Fryer -->
<g id="edge8" class="edge"><title>Queue&#45;&gt;Philip J. Fryer</title>
<path fill="none" stroke="black" d="M327.249,-76.5802C353.168,-80.1507 390.025,-85.228 422.112,-89.6481"/>
<polygon fill="black" stroke="black" points="421.958,-93.1599 432.342,-91.0574 422.914,-86.2254 421.958,-93.1599"/>
<text text-anchor="middle" x="377" y="-90.8" font-family="Times,serif" font-size="14.00">Fry Well</text>
</g>
<!-- Sir Eggsalot -->
<g id="node11" class="node"><title>Sir Eggsalot</title>
<ellipse fill="none" stroke="black" cx="491" cy="-45" rx="57.3905" ry="18"/>
<text text-anchor="middle" x="491" y="-41.3" font-family="Times,serif" font-size="14.00">Sir Eggsalot</text>
</g>
<!-- Queue&#45;&gt;Sir Eggsalot -->
<g id="edge10" class="edge"><title>Queue&#45;&gt;Sir Eggsalot</title>
<path fill="none" stroke="black" d="M324.947,-64.2011C331.845,-62.6468 339.146,-61.1434 346,-60 371.713,-55.7107 400.226,-52.4349 425.05,-50.0554"/>
<polygon fill="black" stroke="black" points="425.45,-53.5334 435.083,-49.1226 424.802,-46.5634 425.45,-53.5334"/>
<text text-anchor="middle" x="377" y="-63.8" font-family="Times,serif" font-size="14.00">Over Easy</text>
</g>
<!-- eggs -->
<g id="node4" class="node"><title>eggs</title>
<ellipse fill="none" stroke="black" cx="80" cy="-72" rx="27.8951" ry="18"/>
<text text-anchor="middle" x="80" y="-68.3" font-family="Times,serif" font-size="14.00">eggs</text>
</g>
<!-- eggs&#45;&gt;Queue -->
<g id="edge4" class="edge"><title>eggs&#45;&gt;Queue</title>
<path fill="none" stroke="black" d="M108.153,-72C143.347,-72 205.192,-72 247.346,-72"/>
<polygon fill="black" stroke="black" points="247.61,-75.5001 257.61,-72 247.61,-68.5001 247.61,-75.5001"/>
<text text-anchor="middle" x="209" y="-75.8" font-family="Times,serif" font-size="14.00">Over Easy</text>
</g>
<!-- corned_beef_hash -->
<g id="node6" class="node"><title>corned_beef_hash</title>
<ellipse fill="none" stroke="black" cx="80" cy="-18" rx="79.0865" ry="18"/>
<text text-anchor="middle" x="80" y="-14.3" font-family="Times,serif" font-size="14.00">corned_beef_hash</text>
</g>
<!-- corned_beef_hash&#45;&gt;Queue -->
<g id="edge6" class="edge"><title>corned_beef_hash&#45;&gt;Queue</title>
<path fill="none" stroke="black" d="M141.882,-29.4138C171.695,-35.5058 207.979,-43.6709 240,-53 244.948,-54.4417 250.105,-56.1131 255.167,-57.8547"/>
<polygon fill="black" stroke="black" points="254.106,-61.1923 264.701,-61.2485 256.454,-54.5976 254.106,-61.1923"/>
<text text-anchor="middle" x="209" y="-56.8" font-family="Times,serif" font-size="14.00">Browned</text>
</g>
</g>
</svg>
