<?xml version="1.0" encoding="UTF-8" standalone="no"?>
<!DOCTYPE svg PUBLIC "-//W3C//DTD SVG 1.1//EN"
 "http://www.w3.org/Graphics/SVG/1.1/DTD/svg11.dtd">
<!-- Generated by graphviz version 2.28.0 (20110606.1731)
 -->
<!-- Title: _anonymous_0 Pages: 1 -->
<svg width="376pt" height="98pt"
 viewBox="0.00 0.00 376.00 98.00" xmlns="http://www.w3.org/2000/svg" xmlns:xlink="http://www.w3.org/1999/xlink">
<g id="graph1" class="graph" transform="scale(1 1) rotate(0) translate(4 94)">
<title>_anonymous_0</title>
<!-- Root -->
<g id="node1" class="node"><title>Root</title>
<ellipse fill="none" stroke="black" cx="29" cy="-45" rx="29.4969" ry="18"/>
<text text-anchor="middle" x="29" y="-41.3" font-family="Times,serif" font-size="14.00">Root</text>
</g>
<!-- Child -->
<g id="node3" class="node"><title>Child</title>
<ellipse fill="none" stroke="black" cx="159" cy="-72" rx="31.6951" ry="18"/>
<text text-anchor="middle" x="159" y="-68.3" font-family="Times,serif" font-size="14.00">Child</text>
</g>
<!-- Root&#45;&gt;Child -->
<g id="edge2" class="edge"><title>Root&#45;&gt;Child</title>
<path fill="none" stroke="black" d="M56.833,-50.6601C74.8943,-54.4699 98.999,-59.5545 119.149,-63.8048"/>
<polygon fill="black" stroke="black" points="118.468,-67.2381 128.975,-65.8775 119.913,-60.3888 118.468,-67.2381"/>
</g>
<!-- Favorite Child -->
<g id="node5" class="node"><title>Favorite Child</title>
<ellipse fill="none" stroke="black" cx="159" cy="-18" rx="64.9885" ry="18"/>
<text text-anchor="middle" x="159" y="-14.3" font-family="Times,serif" font-size="14.00">Favorite Child</text>
</g>
<!-- Root&#45;&gt;Favorite Child -->
<g id="edge4" class="edge"><title>Root&#45;&gt;Favorite Child</title>
<path fill="none" stroke="black" d="M56.833,-39.3399C68.513,-36.8762 82.7205,-33.8793 96.7513,-30.9197"/>
<polygon fill="black" stroke="black" points="97.8357,-34.268 106.898,-28.7793 96.3909,-27.4187 97.8357,-34.268"/>
</g>
<!-- Grandchild -->
<g id="node7" class="node"><title>Grandchild</title>
<ellipse fill="none" stroke="black" cx="314" cy="-72" rx="53.0913" ry="18"/>
<text text-anchor="middle" x="314" y="-68.3" font-family="Times,serif" font-size="14.00">Grandchild</text>
</g>
<!-- Child&#45;&gt;Grandchild -->
<g id="edge6" class="edge"><title>Child&#45;&gt;Grandchild</title>
<path fill="none" stroke="black" d="M190.962,-72C208.068,-72 229.95,-72 250.449,-72"/>
<polygon fill="black" stroke="black" points="250.691,-75.5001 260.69,-72 250.69,-68.5001 250.691,-75.5001"/>
</g>
</g>
</svg>
